<?xml version="1.0" encoding="UTF-8"?>
<svg width="60px" height="60px" viewBox="0 0 60 60" version="1.1" xmlns="http://www.w3.org/2000/svg" xmlns:xlink="http://www.w3.org/1999/xlink">
    <!-- Generator: Sketch 43.2 (39069) - http://www.bohemiancoding.com/sketch -->
    <title>noun_Value_2651524</title>
    <desc>Created with Sketch.</desc>
    <defs></defs>
    <g id="Page-1" stroke="none" stroke-width="1" fill="none" fill-rule="evenodd">
        <g id="noun_Value_2651524" fill-rule="nonzero" fill="#000000">
            <path d="M56,23.907 L56,12 C56,8.842 48.457,8 44,8 C43.314,8 42.65,8.023 42,8.057 L42,4 C42,0.842 34.457,0 30,0 C25.543,0 18,0.842 18,4 L18,8.057 C17.35,8.023 16.686,8 16,8 C11.543,8 4,8.842 4,12 L4,23.907 C1.722,24.519 0,25.494 0,27 L0,56 C0,59.158 7.543,60 12,60 C16.21,60 23.164,59.246 23.924,56.5 C27.9474553,57.1640007 32.0525447,57.1640007 36.076,56.5 C36.836,59.246 43.79,60 48,60 C52.457,60 60,59.158 60,56 L60,27 C60,25.494 58.278,24.519 56,23.907 Z M58.006,32.958 C57.727,33.67 54.043,35 48,35 C41.957,35 38.273,33.67 38,33 L38,29.376 C40.542,30.61 44.978,31 48,31 C51.022,31 55.456,30.61 58,29.377 L58.006,32.958 Z M58.006,38.958 C57.727,39.67 54.043,41 48,41 C41.957,41 38.273,39.67 38,39 L38,35.378 C40.547,36.61 44.979,37 48,37 C51.021,37 55.456,36.61 58,35.377 L58.006,38.958 Z M58.006,44.958 C57.727,45.67 54.043,47 48,47 C41.957,47 38.273,45.67 38,45 L38,41.378 C40.547,42.61 44.979,43 48,43 C51.021,43 55.456,42.61 58,41.377 L58.006,44.958 Z M20,6.376 C22.542,7.61 26.978,8 30,8 C33.022,8 37.456,7.61 40,6.377 L40,9.092 C40,9.102 39.995,9.967 39.995,9.967 C39.692,10.682 36.017,12 30,12 C23.957,12 20.273,10.67 20,10 L20,6.376 Z M54.006,14.376 L54.006,17.958 C53.729,18.671 50.049,20 44,20 C43.311,20 42.648,19.975 42,19.94 L42,15.94 C42.65,15.974 43.314,15.997 44,15.997 C47.022,16 51.456,15.61 54,14.377 L54.006,14.376 Z M36,44.48 C32.0264883,45.1310086 27.9735117,45.1310086 24,44.48 L24,41.516 C27.9739714,42.1613348 32.0260286,42.1613348 36,41.516 L36,44.48 Z M20,12.38 C22.547,13.61 26.979,14 30,14 C33.021,14 37.456,13.61 40,12.377 L40,15.958 C39.727,16.67 36.043,18 30,18 C23.957,18 20.273,16.67 20,16 L20,12.38 Z M20,18.38 C22.547,19.61 26.979,20 30,20 C33.021,20 37.456,19.61 40,18.377 L40,21.958 C39.727,22.67 36.043,24 30,24 C23.957,24 20.273,22.67 20,22 L20,18.38 Z M30,26 C32.2937973,26.006739 34.5830587,25.7957934 36.837,25.37 C36.3295097,25.7618483 36.0227511,26.3592396 36,27 L36,29.48 C32.0264883,30.1310086 27.9735117,30.1310086 24,29.48 L24,27 C23.9772489,26.3592396 23.6704903,25.7618483 23.163,25.37 C25.4169413,25.7957934 27.7062027,26.006739 30,26 Z M24,31.516 C25.983062,31.8438935 27.990021,32.0057882 30,32 C32.009979,32.0057882 34.016938,31.8438935 36,31.516 L36,34.48 C32.0264883,35.1310086 27.9735117,35.1310086 24,34.48 L24,31.516 L24,31.516 Z M24,36.516 C27.9739714,37.1613348 32.0260286,37.1613348 36,36.516 L36,39.48 C32.0264883,40.1310086 27.9735117,40.1310086 24,39.48 L24,36.516 Z M24,46.516 C27.9739714,47.1613348 32.0260286,47.1613348 36,46.516 L36,49.48 C32.0264883,50.1310086 27.9735117,50.1310086 24,49.48 L24,46.516 Z M57.989,26.984 C57.634,27.7 53.972,29 48,29 C42,29 38.333,27.691 38.011,27.016 C38.366,26.3 42.028,25 48,25 C54,25 57.667,26.309 57.989,26.984 Z M48,23 C45.9904987,22.9992207 43.9841366,23.1587265 42,23.477 L42,21.943 C42.65,21.977 43.314,22 44,22 C47.022,22 51.456,21.61 54,20.377 L54,23.477 C52.0158827,23.1585659 50.0095076,22.9990591 48,23 Z M53.989,11.984 C53.64,12.7 49.981,14 44,14 C43.311,14 42.648,13.975 42,13.94 L42,10.06 C42.648,10.025 43.311,10 44,10 C50,10 53.671,11.308 53.989,11.984 Z M30,2 C36,2 39.667,3.309 39.989,3.984 C39.634,4.7 35.972,6 30,6 C24,6 20.333,4.691 20.011,4.016 C20.366,3.3 24.028,2 30,2 Z M16,10 C16.689,10 17.352,10.025 18,10.06 L18,13.94 C17.352,13.975 16.689,14 16,14 C10.062,14 6.414,12.721 6.021,12 C6.414,11.279 10.062,10 16,10 Z M6,14.376 C8.543,15.61 12.978,16 16,16 C16.686,16 17.35,15.977 18,15.943 L18,19.943 C17.352,19.978 16.689,20.003 16,20.003 C9.951,20.003 6.271,18.674 6,18.003 L6,14.376 Z M6,20.376 C8.547,21.61 12.979,22 16,22 C16.686,22 17.35,21.977 18,21.943 L18,23.477 C14.0252815,22.8409941 9.97471853,22.8409941 6,23.477 L6,20.376 Z M12,25 C18,25 21.667,26.309 21.989,26.984 C21.634,27.7 17.972,29 12,29 C6,29 2.333,27.691 2.011,27.016 C2.366,26.3 6.028,25 12,25 Z M2,29.376 C4.542,30.61 8.978,31 12,31 C15.022,31 19.456,30.61 22,29.377 L22,32.958 C21.727,33.67 18.043,35 12,35 C5.957,35 2.273,33.67 2,33 L2,29.376 Z M2,35.376 C4.547,36.61 8.979,37 12,37 C15.021,37 19.456,36.61 22,35.377 L22,38.958 C21.727,39.67 18.043,41 12,41 C5.957,41 2.273,39.67 2,39 L2,35.376 Z M2,41.376 C4.547,42.61 8.979,43 12,43 C15.021,43 19.456,42.61 22,41.377 L22,44.958 C21.727,45.67 18.043,47 12,47 C5.957,47 2.273,45.67 2,45 L2,41.376 Z M2,47.376 C4.547,48.61 8.979,49 12,49 C15.021,49 19.456,48.61 22,47.377 L22,50 L22,50 L22,50.966 C21.7,51.68 18.022,53 12,53 C5.957,53 2.273,51.67 2,51 L2,47.378 L2,47.376 Z M12,58 C5.957,58 2.273,56.67 2,56 L2,53.378 C4.547,54.61 8.979,55 12,55 C15.021,55 19.457,54.61 22,53.376 L22,55.958 C21.727,56.67 18.043,58 12,58 Z M24,54.48 L24,51.516 C27.9739714,52.1613348 32.0260286,52.1613348 36,51.516 L36,54.48 C32.0264883,55.1310086 27.9735117,55.1310086 24,54.48 L24,54.48 Z M48,58 C41.957,58 38.273,56.67 38,56 L38,53.378 C40.547,54.61 44.979,55 48,55 C51.021,55 55.457,54.61 58,53.376 L58,55.958 C57.727,56.67 54.043,58 48,58 Z M58,50.966 C57.7,51.68 54.022,53 48,53 C41.957,53 38.273,51.67 38,51 L38,47.378 C40.547,48.61 44.979,49 48,49 C51.021,49 55.456,48.61 58,47.377 L58,50 L58,50 L58,50.966 Z" id="Shape"></path>
        </g>
    </g>
</svg>