<?xml version="1.0" encoding="UTF-8"?>
<svg width="100px" height="100px" viewBox="0 0 100 100" version="1.1" xmlns="http://www.w3.org/2000/svg" xmlns:xlink="http://www.w3.org/1999/xlink">
    <!-- Generator: Sketch 43.2 (39069) - http://www.bohemiancoding.com/sketch -->
    <title>noun_Value_2281190</title>
    <desc>Created with Sketch.</desc>
    <defs></defs>
    <g id="Page-1" stroke="none" stroke-width="1" fill="none" fill-rule="evenodd">
        <g id="noun_Value_2281190" fill-rule="nonzero" fill="#000000">
            <path d="M32.5,0 C14.5507456,-1.09907485e-15 2.19814969e-15,14.5507456 0,32.5 C-2.19814969e-15,50.4492544 14.5507456,65 32.5,65 C33.37,65 34.24,64.97 35.1,64.9 C36.8263296,64.7624601 38.5386299,64.4848802 40.22,64.07 C51.9828672,61.1671395 61.1671395,51.9828672 64.07,40.22 C64.4848509,38.5386239 64.7624304,36.826326 64.9,35.1 C64.97,34.24 65,33.37 65,32.5 C64.979324,14.5593169 50.4406831,0.0206760447 32.5,0 L32.5,0 Z M59.78,35.93 C59.550924,37.8392186 59.1115917,39.7172806 58.47,41.53 C55.6980495,49.4619689 49.4619689,55.6980495 41.53,58.47 C38.6254821,59.4764833 35.5739536,59.9935197 32.5,60 C17.3121694,60 5,47.6878306 5,32.5 C5,17.3121694 17.3121694,5 32.5,5 C47.6878306,5 60,17.3121694 60,32.5 C60.002701,33.6469436 59.9292058,34.7927997 59.78,35.93 L59.78,35.93 Z" id="Shape"></path>
            <path d="M100,67.5 C100.000197,85.1729402 85.8783799,99.6069413 68.2096594,99.9931131 C50.5409389,100.379285 35.801962,86.5760723 35.03,68.92 L35.42,68.89 C36.9657184,68.7620528 38.5020053,68.5382893 40.02,68.22 C40.4097611,83.2153823 52.7468866,95.1308757 67.7467551,94.999169 C82.7466237,94.8674623 94.8726146,82.7371699 94.9990013,67.7372556 C95.1253879,52.7373412 83.2055196,40.4044426 68.21,40.02 C68.5371614,38.5032132 68.7643172,36.9665706 68.89,35.42 C68.9,35.29 68.91,35.16 68.91,35.03 C86.2860847,35.8040236 99.9808814,50.1066948 100,67.5 Z" id="Shape"></path>
            <polygon id="Shape" points="13.997 96 10.461 92.465 19.693 83.232 10.284 73.822 13.819 70.287 26.765 83.232"></polygon>
            <rect id="Rectangle-path" x="4" y="80.89355" width="5.0625" height="4.5"></rect>
            <polygon id="Shape" points="86.003 29.713 89.539 26.178 80.307 16.945 89.716 7.535 86.181 4 73.235 16.945"></polygon>
            <rect id="Rectangle-path" transform="translate(93.468750, 16.856440) rotate(180.000000) translate(-93.468750, -16.856440) " x="90.9375" y="14.60644" width="5.0625" height="4.5"></rect>
            <polygon id="Shape" points="30.01 19.524 30.01 22.769 25.372 22.769 25.372 34.976 34.622 34.976 34.622 37.229 25.39 37.239 25.396 42.239 30.01 42.234 30.01 45.476 35.01 45.476 35.01 42.228 39.622 42.223 39.622 29.976 30.372 29.976 30.372 27.769 39.628 27.769 39.628 22.769 35.01 22.769 35.01 19.524"></polygon>
            <circle id="Oval" cx="67.51501" cy="67.51498" r="4.5"></circle>
        </g>
    </g>
</svg>