<?xml version="1.0" encoding="UTF-8"?>
<svg width="62px" height="62px" viewBox="0 0 62 62" version="1.1" xmlns="http://www.w3.org/2000/svg" xmlns:xlink="http://www.w3.org/1999/xlink">
    <!-- Generator: Sketch 43.2 (39069) - http://www.bohemiancoding.com/sketch -->
    <title>noun_currency_3159331</title>
    <desc>Created with Sketch.</desc>
    <defs></defs>
    <g id="Page-1" stroke="none" stroke-width="1" fill="none" fill-rule="evenodd">
        <g id="noun_currency_3159331" fill-rule="nonzero" fill="#000000">
            <g id="Group">
                <path d="M32,42 L30,42 L30,44 C28.346,44 27,45.346 27,47 C27,48.654 28.346,50 30,50 L32,50 C32.551,50 33,50.449 33,51 C33,51.551 32.551,52 32,52 L29,52 L29,51 L27,51 L27,54 L30,54 L30,56 L32,56 L32,54 C33.654,54 35,52.654 35,51 C35,49.346 33.654,48 32,48 L30,48 C29.449,48 29,47.551 29,47 C29,46.449 29.449,46 30,46 L33,46 L33,47 L35,47 L35,44 L32,44 L32,42 Z" id="Shape"></path>
                <path d="M13,26 L15,26 L15,24 C16.654,24 18,22.654 18,21 C18,19.346 16.654,18 15,18 L13,18 C12.449,18 12,17.551 12,17 C12,16.449 12.449,16 13,16 L16,16 L16,17 L18,17 L18,14 L15,14 L15,12 L13,12 L13,14 C11.346,14 10,15.346 10,17 C10,18.654 11.346,20 13,20 L15,20 C15.551,20 16,20.449 16,21 C16,21.551 15.551,22 15,22 L12,22 L12,21 L10,21 L10,24 L13,24 L13,26 Z" id="Shape"></path>
                <path d="M14,30 C19.67,30 24.35,25.687 24.936,20.169 C26.676,21.323 28.76,22 31,22 C33.24,22 35.324,21.323 37.064,20.169 C37.65,25.687 42.33,30 48,30 C54.065,30 59,25.065 59,19 C59,12.935 54.065,8 48,8 C45.812,8 43.719,8.637 41.935,9.822 C41.344,4.309 36.667,0 31,0 C25.333,0 20.656,4.309 20.065,9.822 C18.281,8.637 16.188,8 14,8 C7.935,8 3,12.935 3,19 C3,25.065 7.935,30 14,30 Z M57,19 C57,23.962 52.962,28 48,28 C43.038,28 39,23.962 39,19 C39,18.831 39.015,18.665 39.026,18.498 C40.564,16.853 41.602,14.741 41.901,12.396 C43.569,10.854 45.718,10 48,10 C52.962,10 57,14.038 57,19 Z M31,2 C35.962,2 40,6.038 40,11 C40,15.962 35.962,20 31,20 C26.038,20 22,15.962 22,11 C22,6.038 26.038,2 31,2 Z M14,10 C16.282,10 18.431,10.854 20.099,12.397 C20.398,14.742 21.436,16.853 22.974,18.499 C22.985,18.665 23,18.831 23,19 C23,23.962 18.962,28 14,28 C9.038,28 5,23.962 5,19 C5,14.038 9.038,10 14,10 Z" id="Shape"></path>
                <path d="M31,18 C33.206,18 35,16.206 35,14 L33,14 C33,15.103 32.103,16 31,16 C29.897,16 29,15.103 29,14 L31,14 L31,12 L29,12 L29,10 L31,10 L31,8 L29,8 C29,6.897 29.897,6 31,6 C32.103,6 33,6.897 33,8 L35,8 C35,5.794 33.206,4 31,4 C28.794,4 27,5.794 27,8 L25,8 L25,10 L27,10 L27,12 L25,12 L25,14 L27,14 C27,16.206 28.794,18 31,18 Z" id="Shape"></path>
                <polygon id="Shape" points="46.72 18 45 18 45 20 47 20 47 22 45 22 45 24 47 24 47 26 49 26 49 24 51 24 51 22 49 22 49 20 51 20 51 18 49.28 18 52.781 13.625 51.219 12.375 48 16.399 44.781 12.375 43.219 13.625"></polygon>
                <path d="M62,45 C62,43.346 60.654,42 59,42 L43,42 C42.007,42 41.132,42.49 40.586,43.236 L36.108,36.839 L39.29,27.292 L33.464,25.835 L31.876,29.011 L30.474,26.907 L22.638,28.213 L25.88,36.858 L21.416,43.236 C21.356,43.154 21.29,43.076 21.221,43 C21.701,42.468 22.001,41.771 22.001,41 L22.001,39 C22.001,37.346 20.655,36 19.001,36 L3,36 C1.346,36 0,37.346 0,39 L0,41 C0,41.771 0.301,42.468 0.78,43 C0.301,43.532 0,44.229 0,45 L0,47 C0,47.771 0.301,48.468 0.78,49 C0.301,49.532 0,50.229 0,51 L0,53 C0,53.771 0.301,54.468 0.78,55 C0.301,55.532 0,56.229 0,57 L0,59 C0,60.654 1.346,62 3,62 L19,62 C20.654,62 22,60.654 22,59 L22,58.13 C24.133,60.499 27.213,62 30.645,62 L31.356,62 C34.788,62 37.868,60.499 40.001,58.13 L40.001,59 C40.001,60.654 41.347,62 43.001,62 L59.001,62 C60.655,62 62.001,60.654 62.001,59 L62.001,57 C62.001,56.229 61.7,55.532 61.221,55 C61.701,54.468 62.001,53.771 62.001,53 L62.001,51 C62.001,50.229 61.7,49.532 61.221,49 C61.701,48.468 62.001,47.771 62.001,47 L62.001,45 L62,45 Z M43,44 L44,44 L44,46 L46,46 L46,44 L48,44 L48,46 L50,46 L50,44 L52,44 L52,46 L54,46 L54,44 L56,44 L56,46 L58,46 L58,44 L59,44 C59.551,44 60,44.449 60,45 L60,47 C60,47.551 59.551,48 59,48 L43,48 C42.919,48 42.838,48.011 42.757,48.017 C42.591,47.202 42.337,46.411 42,45.65 L42,45 C42,44.449 42.449,44 43,44 Z M29.526,29.093 L32.124,32.989 L34.536,28.165 L36.71,28.708 L34.279,36 L27.693,36 L25.363,29.787 L29.526,29.093 Z M3,48 C2.449,48 2,47.551 2,47 L2,45 C2,44.449 2.449,44 3,44 L4,44 L4,46 L6,46 L6,44 L8,44 L8,46 L10,46 L10,44 L12,44 L12,46 L14,46 L14,44 L16,44 L16,46 L18,46 L18,44 L19,44 C19.551,44 20,44.449 20,45 L20,45.651 C19.665,46.406 19.413,47.192 19.246,48 L19,48 L3,48 Z M2,39 C2,38.449 2.449,38 3,38 L4,38 L4,40 L6,40 L6,38 L8,38 L8,40 L10,40 L10,38 L12,38 L12,40 L14,40 L14,38 L16,38 L16,40 L18,40 L18,38 L19,38 C19.551,38 20,38.449 20,39 L20,41 C20,41.551 19.551,42 19,42 L3,42 C2.449,42 2,41.551 2,41 L2,39 Z M20,59 C20,59.551 19.551,60 19,60 L3,60 C2.449,60 2,59.551 2,59 L2,57 C2,56.449 2.449,56 3,56 L4,56 L4,58 L6,58 L6,56 L8,56 L8,58 L10,58 L10,56 L12,56 L12,58 L14,58 L14,56 L16,56 L16,58 L18,58 L18,56 L19,56 C19.551,56 20,56.449 20,57 L20,59 Z M19,54 L3,54 C2.449,54 2,53.551 2,53 L2,51 C2,50.449 2.449,50 3,50 L4,50 L4,52 L6,52 L6,50 L8,50 L8,52 L10,52 L10,50 L12,50 L12,52 L14,52 L14,50 L16,50 L16,52 L18,52 L18,50 L19,50 L19.013,50 C19.01,50.119 19,50.236 19,50.355 C19,51.653 19.223,52.898 19.616,54.064 C19.417,54.023 19.211,54 19,54 Z M31.355,60 L30.644,60 C25.327,60 21,55.673 21,50.355 C21,48.366 21.603,46.454 22.744,44.824 L27.521,38 L34.48,38 L39.257,44.824 C40.397,46.454 41,48.367 41,50.355 C41,55.673 36.673,60 31.355,60 Z M43,50.355 C43,50.237 42.99,50.119 42.987,50.001 C42.991,50.002 42.995,50 43,50 L44,50 L44,52 L46,52 L46,50 L48,50 L48,52 L50,52 L50,50 L52,50 L52,52 L54,52 L54,50 L56,50 L56,52 L58,52 L58,50 L59,50 C59.551,50 60,50.449 60,51 L60,53 C60,53.551 59.551,54 59,54 L43,54 C42.789,54 42.583,54.023 42.384,54.065 C42.777,52.898 43,51.653 43,50.355 Z M60,59 C60,59.551 59.551,60 59,60 L43,60 C42.449,60 42,59.551 42,59 L42,57 C42,56.449 42.449,56 43,56 L44,56 L44,58 L46,58 L46,56 L48,56 L48,58 L50,58 L50,56 L52,56 L52,58 L54,58 L54,56 L56,56 L56,58 L58,58 L58,56 L59,56 C59.551,56 60,56.449 60,57 L60,59 Z" id="Shape"></path>
            </g>
        </g>
    </g>
</svg>