<?xml version="1.0" encoding="UTF-8"?>
<svg width="384px" height="480px" viewBox="0 0 384 480" version="1.1" xmlns="http://www.w3.org/2000/svg" xmlns:xlink="http://www.w3.org/1999/xlink">
    <!-- Generator: Sketch 43.2 (39069) - http://www.bohemiancoding.com/sketch -->
    <title>noun_coin_2831845</title>
    <desc>Created with Sketch.</desc>
    <defs></defs>
    <g id="Page-1" stroke="none" stroke-width="1" fill="none" fill-rule="evenodd">
        <g id="noun_coin_2831845" fill-rule="nonzero" fill="#000000">
            <g id="Group">
                <path d="M200,216.933106 L200,208.933106 C213.233398,208.933106 224,198.166504 224,184.933106 C224,171.699707 213.233398,160.933106 200,160.933106 L184,160.933106 C179.588867,160.933106 176,157.344238 176,152.933106 C176,148.521973 179.588867,144.933106 184,144.933106 L208,144.933106 C212.417969,144.933106 216,141.351562 216,136.933106 C216,132.514649 212.417969,128.933106 208,128.933106 L200,128.933106 L200,120.933106 C200,116.514649 196.417969,112.933106 192,112.933106 C187.582031,112.933106 184,116.514649 184,120.933106 L184,128.933106 C170.766602,128.933106 160,139.699707 160,152.933106 C160,166.166504 170.766602,176.933106 184,176.933106 L200,176.933106 C204.411133,176.933106 208,180.521973 208,184.933106 C208,189.344238 204.411133,192.933106 200,192.933106 L176,192.933106 C171.582031,192.933106 168,196.514649 168,200.933106 C168,205.351562 171.582031,208.933106 176,208.933106 L184,208.933106 L184,216.933106 C184,221.351562 187.582031,224.933106 192,224.933106 C196.417969,224.933106 200,221.351562 200,216.933106 Z" id="Shape"></path>
                <path d="M253.657227,307.276367 C250.532227,304.152344 245.467774,304.152344 242.342773,307.276367 L216,333.619141 L216,304.933105 L264,304.933105 C268.417969,304.933105 272,301.351562 272,296.933105 L272,248.933105 C272,244.514648 268.417969,240.933105 264,240.933105 L228.890625,240.933105 C255.012695,227.493957 272.933594,200.275818 272.933594,168.933105 C272.933594,124.306641 236.626953,88 192,88 C147.373047,88 111.066406,124.306641 111.066406,168.933106 C111.066406,200.275818 128.987305,227.493958 155.109375,240.933106 L120,240.933106 C115.582031,240.933106 112,244.514649 112,248.933106 L112,288.933106 L64,288.933106 C59.5820312,288.933106 56,292.514649 56,296.933106 L56,336.933106 L40,336.933106 C35.5820312,336.933106 32,340.514649 32,344.933106 L32,392.933106 C32,397.351562 35.5820313,400.933106 40,400.933106 L96,400.933106 L96,440.933106 C96,445.351562 99.5820313,448.933106 104,448.933106 L248,448.933106 C252.417969,448.933106 256,445.351562 256,440.933106 L256,396.24707 L306.342773,446.589844 C307.905273,448.151855 309.952148,448.933105 312,448.933105 C314.047852,448.933105 316.094727,448.151855 317.657227,446.589844 L349.657227,414.589844 C352.78125,411.46582 352.78125,406.400391 349.657227,403.276367 L253.657227,307.276367 Z M127.066406,168.933106 C127.066406,133.128906 156.195312,104 192,104 C227.804688,104 256.933594,133.128906 256.933594,168.933106 C256.933594,204.737793 227.804688,233.866699 192,233.866699 C156.195312,233.866699 127.066406,204.737793 127.066406,168.933106 Z M128,256.933106 L256,256.933106 L256,288.933106 L208,288.933106 L192,288.933106 L192,280.933106 C192,276.514649 188.417969,272.933106 184,272.933106 C179.582031,272.933106 176,276.514649 176,280.933106 L176,288.933106 L160,288.933106 L160,280.933106 C160,276.514649 156.417969,272.933106 152,272.933106 C147.582031,272.933106 144,276.514649 144,280.933106 L144,288.933106 L128,288.933106 L128,256.933106 Z M72,304.933106 L120,304.933106 L200,304.933106 L200,336.933106 L184,336.933106 L136,336.933106 L136,328.933106 C136,324.514649 132.417969,320.933106 128,320.933106 C123.582031,320.933106 120,324.514649 120,328.933106 L120,336.933106 L104,336.933106 L104,328.933106 C104,324.514649 100.417969,320.933106 96,320.933106 C91.5820313,320.933106 88,324.514649 88,328.933106 L88,336.933106 L72,336.933106 L72,304.933106 Z M48,352.933106 L64,352.933106 L176,352.933106 L176,384.933106 L160,384.933106 L160,376.933106 C160,372.514649 156.417969,368.933106 152,368.933106 C147.582031,368.933106 144,372.514649 144,376.933106 L144,384.933106 L128,384.933106 L128,376.933106 C128,372.514649 124.417969,368.933106 120,368.933106 C115.582031,368.933106 112,372.514649 112,376.933106 L112,384.933106 L104,384.933106 L48,384.933106 L48,352.933106 Z M240,432.933106 L232,432.933106 L232,424.933106 C232,420.514649 228.417969,416.933106 224,416.933106 C219.582031,416.933106 216,420.514649 216,424.933106 L216,432.933106 L200,432.933106 L200,424.933106 C200,420.514649 196.417969,416.933106 192,416.933106 C187.582031,416.933106 184,420.514649 184,424.933106 L184,432.933106 L112,432.933106 L112,400.933106 L184,400.933106 L240,400.933106 L240,432.933106 Z M192,384.933106 L192,352.933106 L208,352.933106 C209.355957,352.933106 210.631592,352.593079 211.750488,351.997681 L244.686035,384.933106 L192,384.933106 Z M312,429.619629 L299.313721,416.93335 L301.657227,414.589844 C304.78125,411.46582 304.78125,406.400391 301.657227,403.276367 C298.532227,400.152344 293.467774,400.152344 290.342774,403.276367 L287.999756,405.619385 L275.313721,392.933349 L277.657227,390.589844 C280.78125,387.46582 280.78125,382.40039 277.657227,379.276367 C274.532227,376.152344 269.467774,376.152344 266.342774,379.276367 L263.999756,381.619385 L251.313721,368.933349 L253.657227,366.589843 C256.78125,363.46582 256.78125,358.40039 253.657227,355.276367 C250.532227,352.152343 245.467774,352.152343 242.342774,355.276367 L239.999756,357.619384 L227.313477,344.933105 L248,324.246582 L332.686523,408.933105 L312,429.619629 Z" id="Shape"></path>
                <path d="M352,100.686523 L352,96 L360,96 C373.233398,96 384,85.2338867 384,72 C384,63.312561 379.360352,55.6887207 372.428711,51.475647 C374.694092,47.664856 376,43.2200317 376,38.4741211 C376,26.0615234 367.12207,15.4882813 354.890625,13.3330078 C326.62793,8.3535156 267.883789,0 192,0 C116.116211,0 57.3720703,8.3535156 29.1083984,13.3330078 C16.8779297,15.4882813 8,26.0615234 8,38.4741211 C8,43.2200317 9.3059082,47.664856 11.5712891,51.475647 C4.6396484,55.6887207 0,63.312561 0,72 C0,85.2338867 10.7666016,96 24,96 L32,96 L32,100.686523 L7.0292969,125.656738 C2.4960938,130.189941 0,136.216797 0,142.627441 L0,440 C0,462.056152 17.9443359,480 40,480 L344,480 C366.055664,480 384,462.056152 384,440 L384,142.627441 C384,136.216797 381.503906,130.189941 376.970703,125.656738 L352,100.686523 Z M31.8847656,29.090332 C59.6337891,24.2016602 117.333008,16 192,16 C266.666992,16 324.366211,24.2016602 352.114258,29.090332 C356.683594,29.8955078 360,33.8417969 360,38.4741211 C360,43.7265625 355.726562,48 350.474609,48 L33.5253906,48 C28.2734375,48 24,43.7265625 24,38.4741211 C24,33.8417969 27.3164063,29.8955078 31.8847656,29.090332 Z M368,440 C368,453.233887 357.233398,464 344,464 L40,464 C26.7666016,464 16,453.233887 16,440 L16,142.627441 C16,140.490723 16.8320313,138.481445 18.34375,136.970215 L45.6572266,109.656738 C47.1572266,108.156738 48,106.121582 48,104 L48,96 L112,96 C116.417969,96 120,92.418457 120,88 C120,83.581543 116.417969,80 112,80 L40,80 L24,80 C19.5888672,80 16,76.4111328 16,72 C16,67.5888672 19.5888672,64 24,64 L33.5253906,64 L350.474609,64 L360,64 C364.411133,64 368,67.5888672 368,72 C368,76.4111328 364.411133,80 360,80 L344,80 L312,80 C307.582031,80 304,83.581543 304,88 C304,92.418457 307.582031,96 312,96 L336,96 L336,104 C336,106.121582 336.842773,108.156738 338.342773,109.656738 L365.65625,136.970215 C367.167969,138.481445 368,140.490723 368,142.627442 L368,440 Z" id="Shape"></path>
                <path d="M272,96 L280,96 C284.417969,96 288,92.418457 288,88 C288,83.581543 284.417969,80 280,80 L272,80 C267.582031,80 264,83.581543 264,88 C264,92.418457 267.582031,96 272,96 Z" id="Shape"></path>
            </g>
        </g>
    </g>
</svg>