<?xml version="1.0" encoding="UTF-8"?>
<svg width="254px" height="255px" viewBox="0 0 254 255" version="1.1" xmlns="http://www.w3.org/2000/svg" xmlns:xlink="http://www.w3.org/1999/xlink">
    <!-- Generator: Sketch 43.2 (39069) - http://www.bohemiancoding.com/sketch -->
    <title>noun_Graph_2155901</title>
    <desc>Created with Sketch.</desc>
    <defs></defs>
    <g id="Page-1" stroke="none" stroke-width="1" fill="none" fill-rule="evenodd">
        <g id="noun_Graph_2155901" fill-rule="nonzero" fill="#000000">
            <g id="Group">
                <path d="M254,221.1 L254,220.6 L254,220.6 C254,220.4 253.9,220.3 253.8,220.1 C253.8,220.1 253.8,220 253.7,220 C253.6,219.8 253.5,219.7 253.4,219.6 L237.8,204 C237,203.2 235.8,203.2 235,204 C234.2,204.8 234.2,206 235,206.8 L247.2,219 L35.3,219 L35.3,7.1 L47.5,19.3 C47.9,19.7 48.4,19.9 48.9,19.9 C49.4,19.9 49.9,19.7 50.3,19.3 C51.1,18.5 51.1,17.3 50.3,16.5 L34.7,0.8 L34.6,0.7 L34.5,0.6 C34.4,0.5 34.2,0.4 34.1,0.3 L34.1,0.3 L34.1,0.3 C33.9,0.2 33.8,0.2 33.6,0.2 L33.5,0.2 L33,0.2 L33,0.2 C32.8,0.2 32.7,0.3 32.5,0.4 C32.5,0.4 32.4,0.4 32.4,0.5 C32.2,0.6 32.1,0.7 32,0.8 L16.2,16.5 C15.4,17.3 15.4,18.5 16.2,19.3 C17,20.1 18.2,20.1 19,19.3 L31.2,7.1 L31.2,219 L2,219 C0.9,219 0,219.9 0,221 C0,222.1 0.9,223 2,223 L31.3,223 L31.3,252.3 C31.3,253.4 32.2,254.3 33.3,254.3 C34.4,254.3 35.3,253.4 35.3,252.3 L35.3,223 L247.2,223 L235,235.2 C234.2,236 234.2,237.2 235,238 C235.4,238.4 235.9,238.6 236.4,238.6 C236.9,238.6 237.4,238.4 237.8,238 L253.4,222.4 L253.5,222.3 L253.6,222.2 C253.7,222.1 253.8,221.9 253.9,221.8 L253.9,221.8 L253.9,221.8 C254,221.6 254,221.5 254,221.3 C254,221.2 254,221.2 254,221.1 Z" id="Shape"></path>
                <path d="M64.5,35.5 L220.8,35.5 C221.9,35.5 222.8,34.6 222.8,33.5 C222.8,32.4 221.9,31.5 220.8,31.5 L64.5,31.5 C63.4,31.5 62.5,32.4 62.5,33.5 C62.5,34.6 63.4,35.5 64.5,35.5 Z" id="Shape"></path>
            </g>
        </g>
    </g>
</svg>