<?xml version="1.0" encoding="UTF-8"?>
<svg width="66px" height="76px" viewBox="0 0 66 76" version="1.1" xmlns="http://www.w3.org/2000/svg" xmlns:xlink="http://www.w3.org/1999/xlink">
    <!-- Generator: Sketch 43.2 (39069) - http://www.bohemiancoding.com/sketch -->
    <title>noun_coin_2704681</title>
    <desc>Created with Sketch.</desc>
    <defs></defs>
    <g id="Page-1" stroke="none" stroke-width="1" fill="none" fill-rule="evenodd">
        <g id="noun_coin_2704681" fill-rule="nonzero" fill="#000000">
            <path d="M46.4140625,34.0966797 L19.5859375,34.0966797 C19.0332031,34.0966797 18.5859375,34.5439453 18.5859375,35.0966797 C18.5859375,43.0449219 25.0517578,49.5117188 33,49.5117188 C40.9482422,49.5117188 47.4140625,43.0449219 47.4140625,35.0966797 C47.4140625,34.5439453 46.9667969,34.0966797 46.4140625,34.0966797 Z M33,47.5117188 C26.4912109,47.5117188 21.1367187,42.4765625 20.6259766,36.0966797 L45.3740235,36.0966797 C44.8632813,42.4765625 39.5087891,47.5117188 33,47.5117188 Z" id="Shape"></path>
            <path d="M33,0.25 C14.9482422,0.25 0.2617187,14.9355469 0.2617187,32.9873047 L0.2617187,43.0126953 C0.2617187,54.1196289 5.826538,63.9457397 14.3092651,69.8673096 C14.3096923,69.8677368 14.3104248,69.868042 14.310852,69.8684693 C19.614563,73.5703735 26.0558472,75.75 33,75.75 C44.192749,75.75 54.0877075,70.1011963 59.9943237,61.5078125 C59.9988403,61.5032959 60.0008545,61.4968872 60.00531,61.4923096 C63.6183471,56.2292481 65.7382812,49.8649292 65.7382812,43.0126953 L65.7382812,32.9873047 C65.7382813,14.9355469 51.0517578,0.25 33,0.25 Z M5.7119141,57.1346436 C3.7055054,53.2738038 2.4924927,48.9392701 2.2955323,44.3435059 C3.1774903,46.720398 4.3300172,48.9660035 5.7119141,51.0471192 L5.7119141,57.1346436 Z M14.0166016,67.1607666 C11.5964966,65.2542725 9.4680176,62.9955444 7.7119141,60.4579468 L7.7119141,53.755249 C9.5434571,55.9813843 11.6672364,57.9557495 14.0166016,59.6343384 L14.0166016,67.1607666 Z M23.0878906,72.100769 C20.5688476,71.2399902 18.1948242,70.0653076 16.0166015,68.6157226 L16.0166015,60.9661254 C18.2169799,62.3067626 20.5885009,63.3917235 23.0878906,64.187622 L23.0878906,72.100769 Z M32,73.7246094 C29.6184692,73.6479492 27.3041382,73.3034668 25.0878906,72.7125244 L25.0878906,64.7532959 C27.3114014,65.307373 29.6245117,65.628418 32,65.7001953 L32,73.7246094 Z M40.9072266,72.7139282 C38.6924438,73.3040771 36.3797607,73.6480103 34,73.7246094 L34,65.7001953 C36.3737183,65.628479 38.6852417,65.3076782 40.9072266,64.7543945 L40.9072266,72.7139282 Z M49.0771484,69.1972046 C47.1508789,70.3842163 45.0827026,71.359436 42.9072265,72.102417 L42.9072265,64.18927 C45.0704345,63.5008545 47.133789,62.5896606 49.0771484,61.4891357 L49.0771484,69.1972046 Z M58.2880859,60.4579468 C56.3155518,63.3082275 53.875,65.80896 51.0771484,67.850708 L51.0771484,60.2642822 C53.7908325,58.4597778 56.2232055,56.2649536 58.2880859,53.755249 L58.2880859,60.4579468 Z M60.2880859,57.1346436 L60.2880859,51.0471192 C61.6699829,48.9660035 62.8225097,46.720398 63.7044677,44.3435059 C63.5075073,48.93927 62.2944946,53.2738037 60.2880859,57.1346436 Z M33.1162109,63.7226563 C33.0762939,63.7178345 33.0411987,63.6992188 33,63.6992188 C32.9588013,63.6992188 32.9237671,63.7178345 32.8838501,63.7226563 C15.9881592,63.6594238 2.2617188,49.897583 2.2617188,32.9873047 C2.2617188,16.0390625 16.0507813,2.25 33,2.25 C49.9492187,2.25 63.7382813,16.0390625 63.7382813,32.9873047 C63.7382813,49.897583 50.0119019,63.6594238 33.1162109,63.7226563 Z" id="Shape"></path>
            <path d="M33,6.9140625 C18.6230469,6.9140625 6.9257812,18.6103516 6.9257812,32.9873047 C6.9257812,47.3642578 18.6230469,59.0615234 33,59.0615234 C47.3769531,59.0615234 59.0742188,47.3642578 59.0742188,32.9873046 C59.0742188,18.6103514 47.3769531,6.9140625 33,6.9140625 Z M33,57.0615234 C19.7255859,57.0615234 8.9257812,46.2617187 8.9257812,32.9873046 C8.9257812,19.7128905 19.7255859,8.9140625 33,8.9140625 C46.2744141,8.9140625 57.0742188,19.7128906 57.0742188,32.9873047 C57.0742188,46.2617188 46.2744141,57.0615234 33,57.0615234 Z" id="Shape"></path>
            <path d="M20.4902344,26.5673828 C21.0429688,26.5673828 21.4902344,26.1201172 21.4902344,25.5673828 C21.4902344,23.2265625 22.7675782,21.0732422 24.8251953,19.9472656 C25.3095703,19.6826172 25.4873047,19.0751953 25.2216797,18.5898437 C24.9570313,18.1054687 24.3496094,17.9267578 23.8642578,18.1933593 C21.1660156,19.6699218 19.4902344,22.4951171 19.4902344,25.5673827 C19.4902344,26.1201172 19.9375,26.5673828 20.4902344,26.5673828 Z" id="Shape"></path>
            <path d="M23.0742188,24.8925781 C23.0742188,27.3066406 25.038086,29.2714844 27.4521485,29.2714844 C29.866211,29.2714844 31.8310548,27.3066406 31.8310548,24.8925781 C31.8310548,22.4785156 29.866211,20.5146484 27.4521485,20.5146484 C25.038086,20.5146484 23.0742188,22.4785156 23.0742188,24.8925781 Z M27.4521484,22.5146484 C28.7636718,22.5146484 29.8310547,23.5810547 29.8310547,24.8925781 C29.8310547,26.2041015 28.7636719,27.2714844 27.4521484,27.2714844 C26.1406249,27.2714844 25.0742187,26.2041016 25.0742187,24.8925781 C25.0742187,23.5810546 26.140625,22.5146484 27.4521484,22.5146484 Z" id="Shape"></path>
            <path d="M41.1748047,19.9472656 C43.2324219,21.0732422 44.5097656,23.2265625 44.5097656,25.5673828 C44.5097656,26.1201172 44.9570312,26.5673828 45.5097656,26.5673828 C46.0625,26.5673828 46.5097656,26.1201172 46.5097656,25.5673828 C46.5097656,22.4951172 44.8339843,19.6699219 42.1357422,18.1933594 C41.6503906,17.9267578 41.0429688,18.1054688 40.7783203,18.5898438 C40.5126953,19.0751953 40.6904297,19.6826172 41.1748047,19.9472656 Z" id="Shape"></path>
            <path d="M38.5478516,29.2714844 C40.9619141,29.2714844 42.9257813,27.3066406 42.9257813,24.8925781 C42.9257813,22.4785156 40.9619141,20.5146484 38.5478516,20.5146484 C36.1337891,20.5146484 34.1689453,22.4785156 34.1689453,24.8925781 C34.1689453,27.3066406 36.1337891,29.2714844 38.5478516,29.2714844 Z M38.5478516,22.5146484 C39.859375,22.5146484 40.9257813,23.5810547 40.9257813,24.8925781 C40.9257813,26.2041015 39.859375,27.2714844 38.5478516,27.2714844 C37.2363282,27.2714844 36.1689453,26.2041016 36.1689453,24.8925781 C36.1689453,23.5810546 37.2363281,22.5146484 38.5478516,22.5146484 Z" id="Shape"></path>
        </g>
    </g>
</svg>