<?xml version="1.0" encoding="UTF-8"?>
<svg width="66px" height="76px" viewBox="0 0 66 76" version="1.1" xmlns="http://www.w3.org/2000/svg" xmlns:xlink="http://www.w3.org/1999/xlink">
    <!-- Generator: Sketch 43.2 (39069) - http://www.bohemiancoding.com/sketch -->
    <title>noun_coin_2704633</title>
    <desc>Created with Sketch.</desc>
    <defs></defs>
    <g id="Page-1" stroke="none" stroke-width="1" fill="none" fill-rule="evenodd">
        <g id="noun_coin_2704633" fill-rule="nonzero" fill="#000000">
            <path d="M46.4140625,34.097168 L19.5859375,34.097168 C19.0332031,34.097168 18.5859375,34.5449219 18.5859375,35.097168 C18.5859375,43.0449219 25.0517578,49.5112305 33,49.5112305 C40.9482422,49.5112305 47.4140625,43.0449219 47.4140625,35.097168 C47.4140625,34.5449219 46.9667969,34.097168 46.4140625,34.097168 Z M33,47.5112305 C26.4912109,47.5112305 21.1367187,42.4760742 20.6259766,36.097168 L45.3740235,36.097168 C44.8632813,42.4760742 39.5087891,47.5112305 33,47.5112305 Z" id="Shape"></path>
            <path d="M33,0.2495117 C14.9482422,0.2495117 0.2617187,14.9360351 0.2617187,32.987793 L0.2617187,43.012207 C0.2617187,49.8682861 2.3841552,56.2359619 6.0009155,61.5009155 C6.0025634,61.5025634 6.0034179,61.5050049 6.0050659,61.5066528 C11.9116211,70.1008911 21.8068237,75.7504883 33,75.7504883 C44.1931763,75.7504883 54.0883789,70.1008911 59.9949341,61.5066529 C59.996582,61.505005 59.9974365,61.5025025 59.9990845,61.5008546 C63.6158448,56.235901 65.7382813,49.8682252 65.7382813,43.0122071 L65.7382813,32.987793 C65.7382813,14.9360352 51.0517578,0.2495117 33,0.2495117 Z M5.7119141,57.1348267 C3.7056275,53.2740479 2.4925537,48.9396973 2.2955323,44.3439942 C3.1774293,46.7208253 4.3300172,48.9663087 5.7119141,51.0474244 L5.7119141,57.1348267 Z M14.0166016,67.1611328 C11.5964966,65.2545776 9.4680176,62.9959106 7.7119141,60.4581909 L7.7119141,53.7555542 C9.5434571,55.9816284 11.6672364,57.9560547 14.0166016,59.6345215 L14.0166016,67.1611328 Z M23.0878906,72.1012573 C20.5688476,71.2404785 18.1948242,70.0657348 16.0166015,68.6161499 L16.0166015,60.9662476 C18.2169799,62.3068848 20.5885009,63.3917847 23.0878906,64.1876831 L23.0878906,72.1012573 Z M32,73.7250977 C29.6184692,73.6484375 27.3041382,73.3039551 25.0878906,72.7130127 L25.0878906,64.7532959 C27.3114014,65.307312 29.6245117,65.628418 32,65.7001953 L32,73.7250977 Z M40.9072266,72.7144165 C38.6924438,73.3045654 36.3797607,73.6484985 34,73.7250977 L34,65.7001954 C36.3737183,65.6284791 38.6852417,65.3076783 40.9072266,64.7543946 L40.9072266,72.7144165 Z M49.0771484,69.1976929 C47.1508789,70.3847657 45.0827026,71.3599243 42.9072265,72.1029053 L42.9072265,64.1893311 C45.0704345,63.5009156 47.133789,62.5897828 49.0771484,61.4892579 L49.0771484,69.1976929 Z M58.2880859,60.4581909 C56.3155517,63.3085937 53.875,65.8093262 51.0771484,67.8511352 L51.0771484,60.2644653 C53.7908325,58.460083 56.2232055,56.2651977 58.2880859,53.7555542 L58.2880859,60.4581909 Z M60.2880859,57.1348267 L60.2880859,51.0474244 C61.6699829,48.9663087 62.8225708,46.7208253 63.7044677,44.3439942 C63.5074463,48.9396973 62.2943726,53.2740479 60.2880859,57.1348267 Z M33.1138916,63.7227173 C33.0747681,63.7180786 33.0404053,63.699707 33,63.699707 C32.9595947,63.699707 32.9252319,63.7180786 32.8861084,63.7227173 C15.9893188,63.6607666 2.2617188,49.8983154 2.2617188,32.987793 C2.2617188,16.0385742 16.0507813,2.2495117 33,2.2495117 C49.9492187,2.2495117 63.7382813,16.0385742 63.7382813,32.987793 C63.7382813,49.8983154 50.0106812,63.6607666 33.1138916,63.7227173 Z" id="Shape"></path>
            <path d="M33,6.9135742 C18.6230469,6.9135742 6.9257812,18.6103515 6.9257812,32.987793 C6.9257812,47.3647461 18.6230468,59.0615235 33,59.0615235 C47.3769532,59.0615235 59.0742188,47.3647461 59.0742188,32.987793 C59.0742188,18.6103516 47.3769531,6.9135742 33,6.9135742 Z M33,57.0615234 C19.7255859,57.0615234 8.9257812,46.262207 8.9257812,32.9877929 C8.9257812,19.7133788 19.7255859,8.9135742 33,8.9135742 C46.2744141,8.9135742 57.0742188,19.7133789 57.0742188,32.987793 C57.0742188,46.2622071 46.2744141,57.0615234 33,57.0615234 Z" id="Shape"></path>
            <path d="M23.4365234,22.7587891 L28.1669922,27.2211914 C28.3603516,27.4033203 28.6074219,27.4936523 28.8535156,27.4936523 C29.1191406,27.4936523 29.383789,27.3881835 29.5810547,27.1796875 C29.959961,26.777832 29.9414063,26.1450195 29.5400391,25.7661133 L24.1230469,20.6567383 C23.7363281,20.293457 23.1367188,20.293457 22.75,20.6567383 L17.3320312,25.7661133 C16.930664,26.1450196 16.9121093,26.7778321 17.2910156,27.1796875 C17.6699219,27.5815429 18.3027344,27.6000977 18.7050781,27.2211914 L23.4365234,22.7587891 Z" id="Shape"></path>
            <path d="M43.25,20.6567383 C42.8632812,20.293457 42.2636719,20.293457 41.8769531,20.6567383 L36.4589843,25.7661133 C36.0576171,26.1450196 36.0390624,26.7778321 36.4179687,27.1796875 C36.7958984,27.581543 37.4296875,27.6000977 37.8320312,27.2211914 L42.5634765,22.7587891 L47.2949218,27.2211914 C47.4882812,27.4033203 47.7353515,27.4936523 47.9814452,27.4936523 C48.2470702,27.4936523 48.5126952,27.3881835 48.7089843,27.1796875 C49.0878906,26.777832 49.0693359,26.1450195 48.6679687,25.7661133 L43.25,20.6567383 Z" id="Shape"></path>
        </g>
    </g>
</svg>