<?xml version="1.0" encoding="UTF-8"?>
<svg width="66px" height="76px" viewBox="0 0 66 76" version="1.1" xmlns="http://www.w3.org/2000/svg" xmlns:xlink="http://www.w3.org/1999/xlink">
    <!-- Generator: Sketch 43.2 (39069) - http://www.bohemiancoding.com/sketch -->
    <title>noun_coin_2704606</title>
    <desc>Created with Sketch.</desc>
    <defs></defs>
    <g id="Page-1" stroke="none" stroke-width="1" fill="none" fill-rule="evenodd">
        <g id="noun_coin_2704606" fill-rule="nonzero" fill="#000000">
            <path d="M46.4140625,34.0966797 L19.5859375,34.0966797 C19.0332031,34.0966797 18.5859375,34.5439453 18.5859375,35.0966797 C18.5859375,43.0449219 25.0517578,49.5117188 33,49.5117188 C40.9482422,49.5117188 47.4140625,43.0449219 47.4140625,35.0966797 C47.4140625,34.5439453 46.9667969,34.0966797 46.4140625,34.0966797 Z M33,47.5117188 C26.4912109,47.5117188 21.1367187,42.4765625 20.6259766,36.0966797 L45.3740235,36.0966797 C44.8632813,42.4765625 39.5087891,47.5117188 33,47.5117188 Z" id="Shape"></path>
            <path d="M33,0.25 C14.9482422,0.25 0.2617187,14.9355469 0.2617187,32.9873047 L0.2617187,43.0126953 C0.2617187,54.1196289 5.826538,63.9457397 14.3092651,69.8673096 C14.3096923,69.8677368 14.3104248,69.868042 14.310852,69.8684693 C19.614563,73.5703735 26.0558472,75.75 33,75.75 C44.192749,75.75 54.0877075,70.1011963 59.9943237,61.5078125 C59.9988403,61.5032959 60.0008545,61.4968872 60.00531,61.4923096 C63.6183471,56.2292481 65.7382812,49.8649292 65.7382812,43.0126953 L65.7382812,32.9873047 C65.7382813,14.9355469 51.0517578,0.25 33,0.25 Z M5.7119141,57.1346436 C3.7055054,53.2738038 2.4924927,48.9392701 2.2955323,44.3435059 C3.1774903,46.720398 4.3300172,48.9660035 5.7119141,51.0471192 L5.7119141,57.1346436 Z M14.0166016,67.1607666 C11.5964966,65.2542725 9.4680176,62.9955444 7.7119141,60.4579468 L7.7119141,53.755249 C9.5434571,55.9813843 11.6672364,57.9557495 14.0166016,59.6343384 L14.0166016,67.1607666 Z M23.0878906,72.100769 C20.5688476,71.2399902 18.1948242,70.0653076 16.0166015,68.6157226 L16.0166015,60.9661254 C18.2169799,62.3067626 20.5885009,63.3917235 23.0878906,64.187622 L23.0878906,72.100769 Z M32,73.7246094 C29.6184692,73.6479492 27.3041382,73.3034668 25.0878906,72.7125244 L25.0878906,64.7532959 C27.3114014,65.307373 29.6245117,65.628418 32,65.7001953 L32,73.7246094 Z M40.9072266,72.7139282 C38.6924438,73.3040771 36.3797607,73.6480103 34,73.7246094 L34,65.7001953 C36.3737183,65.628479 38.6852417,65.3076782 40.9072266,64.7543945 L40.9072266,72.7139282 Z M49.0771484,69.1972046 C47.1508789,70.3842163 45.0827026,71.359436 42.9072265,72.102417 L42.9072265,64.18927 C45.0704345,63.5008545 47.133789,62.5896606 49.0771484,61.4891357 L49.0771484,69.1972046 Z M58.2880859,60.4579468 C56.3155518,63.3082275 53.875,65.80896 51.0771484,67.850708 L51.0771484,60.2642822 C53.7908325,58.4597778 56.2232055,56.2649536 58.2880859,53.755249 L58.2880859,60.4579468 Z M60.2880859,57.1346436 L60.2880859,51.0471192 C61.6699829,48.9660035 62.8225097,46.720398 63.7044677,44.3435059 C63.5075073,48.93927 62.2944946,53.2738037 60.2880859,57.1346436 Z M33.1162109,63.7226563 C33.0762939,63.7178345 33.0411987,63.6992188 33,63.6992188 C32.9588013,63.6992188 32.9237671,63.7178345 32.8838501,63.7226563 C15.9881592,63.6594238 2.2617188,49.897583 2.2617188,32.9873047 C2.2617188,16.0390625 16.0507813,2.25 33,2.25 C49.9492187,2.25 63.7382813,16.0390625 63.7382813,32.9873047 C63.7382813,49.897583 50.0119019,63.6594238 33.1162109,63.7226563 Z" id="Shape"></path>
            <path d="M33,6.9140625 C18.6230469,6.9140625 6.9257812,18.6103516 6.9257812,32.9873047 C6.9257812,47.3642578 18.6230469,59.0615234 33,59.0615234 C47.3769531,59.0615234 59.0732422,47.3642578 59.0732422,32.9873046 C59.0732422,18.6103514 47.3769531,6.9140625 33,6.9140625 Z M33,57.0615234 C19.7255859,57.0615234 8.9257812,46.2617187 8.9257812,32.9873046 C8.9257812,19.7128905 19.7255859,8.9140625 33,8.9140625 C46.2744141,8.9140625 57.0732422,19.7128906 57.0732422,32.9873047 C57.0732422,46.2617188 46.2744141,57.0615234 33,57.0615234 Z" id="Shape"></path>
            <path d="M36.8349609,29.1337891 C37.8027343,29.4882813 39.0830078,29.6835938 40.4404297,29.6835938 C43.0888672,29.6835938 46.1826172,28.9091797 46.1826172,26.7275391 L46.1826172,22.15625 C46.1826172,18.9902344 43.6064453,16.4140625 40.4394531,16.4140625 C37.2734375,16.4140625 34.6972656,18.9902344 34.6972656,22.15625 L34.6972656,26.7275391 C34.6972656,27.3330078 34.9746094,28.4511719 36.8349609,29.1337891 Z M36.6972656,22.15625 C36.6972656,20.0927734 38.3759765,18.4140625 40.4394531,18.4140625 C42.5039062,18.4140625 44.1826172,20.0927734 44.1826172,22.15625 L44.1826172,26.7275391 C44.1826172,26.9736329 42.8955078,27.6835938 40.4404297,27.6835938 C37.984375,27.6835938 36.6972656,26.9736329 36.6972656,26.7275391 L36.6972656,22.15625 Z" id="Shape"></path>
            <path d="M38.5576172,24.0488281 L42.3222656,24.0488281 C42.875,24.0488281 43.3222656,23.6015625 43.3222656,23.0488281 C43.3222656,22.4960937 42.875,22.0488281 42.3222656,22.0488281 L38.5576172,22.0488281 C38.0048828,22.0488281 37.5576172,22.4960937 37.5576172,23.0488281 C37.5576172,23.6015625 38.0048828,24.0488281 38.5576172,24.0488281 Z" id="Shape"></path>
            <path d="M21.8935547,24.0488281 L25.8249512,24.0488281 L23.006836,25.5039062 C22.5166016,25.7578125 22.3242188,26.3603515 22.5771485,26.8515625 C22.7548829,27.1953125 23.1044923,27.3925781 23.4667969,27.3925781 C23.6210938,27.3925781 23.7783203,27.3564453 23.9248047,27.28125 L30.4003906,23.9375 C30.4892578,23.8914795 30.5674438,23.8317871 30.6370239,23.7639771 C30.6514282,23.75 30.6608886,23.7327271 30.6744385,23.7178956 C30.7390137,23.6469727 30.7915039,23.5681153 30.833313,23.4821168 C30.8475952,23.4528199 30.8603516,23.4247438 30.8718262,23.393921 C30.9125977,23.2842408 30.9414063,23.1697389 30.9414063,23.0488282 C30.9414063,22.9279175 30.9126587,22.8134766 30.8718873,22.7037965 C30.8604127,22.6729127 30.8475953,22.6446534 30.833252,22.6153566 C30.7914429,22.5294191 30.7389527,22.4507448 30.6744385,22.3798219 C30.6608887,22.3649904 30.6514282,22.3476564 30.6370239,22.3336793 C30.5674438,22.2658692 30.4892578,22.2061769 30.4003906,22.1601564 L23.9248047,18.8164064 C23.4335938,18.5644533 22.8300781,18.7558595 22.5771484,19.2460939 C22.3242187,19.7373048 22.5166015,20.3398439 23.0068359,20.5937502 L25.8249511,22.0488283 L21.8935546,22.0488283 C21.3408202,22.0488283 20.8935546,22.4960939 20.8935546,23.0488283 C20.8935546,23.6015627 21.3408203,24.0488281 21.8935547,24.0488281 Z" id="Shape"></path>
        </g>
    </g>
</svg>