<?xml version="1.0" encoding="UTF-8"?>
<svg width="66px" height="76px" viewBox="0 0 66 76" version="1.1" xmlns="http://www.w3.org/2000/svg" xmlns:xlink="http://www.w3.org/1999/xlink">
    <!-- Generator: Sketch 43.2 (39069) - http://www.bohemiancoding.com/sketch -->
    <title>noun_coin_2704669</title>
    <desc>Created with Sketch.</desc>
    <defs></defs>
    <g id="Page-1" stroke="none" stroke-width="1" fill="none" fill-rule="evenodd">
        <g id="noun_coin_2704669" fill-rule="nonzero" fill="#000000">
            <path d="M46.4140625,34.0966797 L19.5859375,34.0966797 C19.0332031,34.0966797 18.5859375,34.5439453 18.5859375,35.0966797 C18.5859375,43.0449219 25.0517578,49.5117188 33,49.5117188 C40.9482422,49.5117188 47.4140625,43.0449219 47.4140625,35.0966797 C47.4140625,34.5439453 46.9667969,34.0966797 46.4140625,34.0966797 Z M33,47.5117188 C26.4912109,47.5117188 21.1367187,42.4765625 20.6259766,36.0966797 L45.3740235,36.0966797 C44.8632813,42.4765625 39.5087891,47.5117188 33,47.5117188 Z" id="Shape"></path>
            <path d="M33,0.25 C14.9482422,0.25 0.2617187,14.9355469 0.2617187,32.9873047 L0.2617187,43.0126953 C0.2617187,54.1196289 5.826538,63.9457397 14.3092651,69.8673096 C14.3096923,69.8677368 14.3104248,69.868042 14.310852,69.8684693 C19.614563,73.5703735 26.0558472,75.75 33,75.75 C44.192749,75.75 54.0877075,70.1011963 59.9943237,61.5078125 C59.9988403,61.5032959 60.0008545,61.4968872 60.00531,61.4923096 C63.6183471,56.2292481 65.7382812,49.8649292 65.7382812,43.0126953 L65.7382812,32.9873047 C65.7382813,14.9355469 51.0517578,0.25 33,0.25 Z M5.7119141,57.1346436 C3.7055054,53.2738038 2.4924927,48.9392701 2.2955323,44.3435059 C3.1774903,46.720398 4.3300172,48.9660035 5.7119141,51.0471192 L5.7119141,57.1346436 Z M14.0166016,67.1607666 C11.5964966,65.2542725 9.4680176,62.9955444 7.7119141,60.4579468 L7.7119141,53.755249 C9.5434571,55.9813843 11.6672364,57.9557495 14.0166016,59.6343384 L14.0166016,67.1607666 Z M23.0878906,72.100769 C20.5688476,71.2399902 18.1948242,70.0653076 16.0166015,68.6157226 L16.0166015,60.9661254 C18.2169799,62.3067626 20.5885009,63.3917235 23.0878906,64.187622 L23.0878906,72.100769 Z M32,73.7246094 C29.6184692,73.6479492 27.3041382,73.3034668 25.0878906,72.7125244 L25.0878906,64.7532959 C27.3114014,65.307373 29.6245117,65.628418 32,65.7001953 L32,73.7246094 Z M40.9072266,72.7139282 C38.6924438,73.3040771 36.3797607,73.6480103 34,73.7246094 L34,65.7001953 C36.3737183,65.628479 38.6852417,65.3076782 40.9072266,64.7543945 L40.9072266,72.7139282 Z M49.0771484,69.1972046 C47.1508789,70.3842163 45.0827026,71.359436 42.9072265,72.102417 L42.9072265,64.18927 C45.0704345,63.5008545 47.133789,62.5896606 49.0771484,61.4891357 L49.0771484,69.1972046 Z M58.2880859,60.4579468 C56.3155518,63.3082275 53.875,65.80896 51.0771484,67.850708 L51.0771484,60.2642822 C53.7908325,58.4597778 56.2232055,56.2649536 58.2880859,53.755249 L58.2880859,60.4579468 Z M60.2880859,57.1346436 L60.2880859,51.0471192 C61.6699829,48.9660035 62.8225097,46.720398 63.7044677,44.3435059 C63.5075073,48.93927 62.2944946,53.2738037 60.2880859,57.1346436 Z M33.1162109,63.7226563 C33.0762939,63.7178345 33.0411987,63.6992188 33,63.6992188 C32.9588013,63.6992188 32.9237671,63.7178345 32.8838501,63.7226563 C15.9881592,63.6594238 2.2617188,49.897583 2.2617188,32.9873047 C2.2617188,16.0390625 16.0507813,2.25 33,2.25 C49.9492187,2.25 63.7382813,16.0390625 63.7382813,32.9873047 C63.7382813,49.897583 50.0119019,63.6594238 33.1162109,63.7226563 Z" id="Shape"></path>
            <path d="M33,6.9140625 C18.6230469,6.9140625 6.9257812,18.6103516 6.9257812,32.9873047 C6.9257812,47.3642578 18.6230469,59.0615234 33,59.0615234 C47.3769531,59.0615234 59.0742188,47.3642578 59.0742188,32.9873046 C59.0742188,18.6103514 47.3769531,6.9140625 33,6.9140625 Z M33,57.0615234 C19.7255859,57.0615234 8.9257812,46.2617187 8.9257812,32.9873046 C8.9257812,19.7128905 19.7255859,8.9140625 33,8.9140625 C46.2744141,8.9140625 57.0742188,19.7128906 57.0742188,32.9873047 C57.0742188,46.2617188 46.2744141,57.0615234 33,57.0615234 Z" id="Shape"></path>
            <path d="M24.6552734,28.8583984 C24.8037109,28.9384765 24.9667968,28.9785156 25.1298828,28.9785156 C25.2929688,28.9785156 25.4560547,28.9384765 25.6044922,28.8583984 C31.6591797,25.5947265 31.296875,22.0439453 31.0419922,21.0341796 C30.6416016,19.4482421 29.2851563,18.2978515 27.8164063,18.2978515 C26.7109375,18.2978515 25.788086,18.7871093 25.1298829,19.6874999 C24.4707032,18.7871093 23.5488282,18.2978515 22.444336,18.2978515 C20.975586,18.2978515 19.6191407,19.4482421 19.2187501,21.0341796 C18.9638672,22.0439453 18.6015625,25.5947266 24.6552734,28.8583984 Z M21.1582031,21.5234375 C21.3583984,20.7275391 21.9707031,20.2978516 22.4443359,20.2978516 C23.4179687,20.2978516 23.8583984,21.3066407 24.0566406,22.1533204 C24.1621094,22.6054688 24.5654297,22.9257813 25.0302734,22.9257813 L25.2304687,22.9257813 C25.6953125,22.9257813 26.0986328,22.6054688 26.2041015,22.1523438 C26.4013671,21.3066407 26.8408203,20.2978516 27.8164062,20.2978516 C28.290039,20.2978516 28.9023437,20.7275391 29.102539,21.5234375 C29.4296874,22.8173828 28.5380859,24.8642578 25.1298827,26.8330078 C21.7226563,24.8642578 20.8310547,22.8173828 21.1582031,21.5234375 Z" id="Shape"></path>
            <path d="M36.1728516,24.5400391 L43.7451172,28.1777344 C43.8847656,28.2451172 44.0322266,28.2763672 44.1767578,28.2763672 C44.5498047,28.2763672 44.9072266,28.0673828 45.0791016,27.7089844 C45.3183594,27.2119141 45.1083985,26.6142578 44.6103516,26.375 L38.9150391,23.6386719 L44.6113282,20.9013672 C45.1083985,20.6621094 45.3183595,20.0644531 45.0791016,19.5664063 C44.8398438,19.0703125 44.2431641,18.8564454 43.7441407,19.0986329 L36.1718751,22.7373048 C35.826172,22.904297 35.6054688,23.2539064 35.6054688,23.638672 C35.6054688,24.0234376 35.8261719,24.3740234 36.1728516,24.5400391 Z" id="Shape"></path>
        </g>
    </g>
</svg>