<?xml version="1.0" encoding="UTF-8"?>
<svg width="66px" height="76px" viewBox="0 0 66 76" version="1.1" xmlns="http://www.w3.org/2000/svg" xmlns:xlink="http://www.w3.org/1999/xlink">
    <!-- Generator: Sketch 43.2 (39069) - http://www.bohemiancoding.com/sketch -->
    <title>noun_coin_2704610</title>
    <desc>Created with Sketch.</desc>
    <defs></defs>
    <g id="Page-1" stroke="none" stroke-width="1" fill="none" fill-rule="evenodd">
        <g id="noun_coin_2704610" fill-rule="nonzero" fill="#000000">
            <path d="M46.4140625,34.0966797 L19.5859375,34.0966797 C19.0336914,34.0966797 18.5859375,34.5439453 18.5859375,35.0966797 C18.5859375,43.0449219 25.0522461,49.5117188 33,49.5117188 C40.9477539,49.5117188 47.4140625,43.0449219 47.4140625,35.0966797 C47.4140625,34.5439453 46.9663086,34.0966797 46.4140625,34.0966797 Z M33,47.5117188 C26.4916992,47.5117188 21.1367187,42.4765625 20.6259766,36.0966797 L45.3740235,36.0966797 C44.8632813,42.4765625 39.5083008,47.5117188 33,47.5117188 Z" id="Shape"></path>
            <path d="M33,0.25 C14.9482422,0.25 0.262207,14.9355469 0.262207,32.9873047 L0.262207,43.0126953 C0.262207,49.8654175 2.3823852,56.2302246 5.9958496,61.4935303 C5.9996338,61.4974366 6.0014038,61.5028687 6.005249,61.5067139 C8.2467651,64.7683106 11.06427,67.6017456 14.3084717,69.8666382 C14.3117676,69.8699341 14.3164063,69.8713989 14.3197022,69.8746338 C19.6217041,73.5728149 26.0596924,75.75 33,75.75 C44.192688,75.75 54.0874023,70.1011963 59.9938965,61.5079346 C59.9994507,61.5023804 60.0020142,61.49469 60.0073853,61.4890137 C63.6188965,56.2265625 65.737793,49.8634644 65.737793,43.0126953 L65.737793,32.9873047 C65.737793,14.9355469 51.0517578,0.25 33,0.25 Z M5.7114258,57.1328125 C3.7056275,53.2724609 2.492981,48.9386597 2.2960205,44.343689 C3.1777344,46.7200318 4.329956,48.9650879 5.7114258,51.0458374 L5.7114258,57.1328125 Z M14.0161133,67.1600952 C11.5960083,65.2533569 9.4675293,62.9945068 7.7114258,60.456665 L7.7114258,53.7542114 C9.5429077,55.9805298 11.6667481,57.9551391 14.0161133,59.6338501 L14.0161133,67.1600952 Z M23.0878906,72.100708 C20.5685425,71.2398071 18.194458,70.0649414 16.0161133,68.6151733 L16.0161133,60.9657592 C18.2166138,62.3065185 20.5883789,63.3916625 23.0878906,64.187622 L23.0878906,72.100708 Z M32,73.7246094 C29.6184692,73.6479492 27.3041382,73.3034668 25.0878906,72.7124634 L25.0878906,64.7532349 C27.3114014,65.307312 29.6245117,65.628418 32,65.7001953 L32,73.7246094 Z M40.9072266,72.7138672 C38.6924438,73.3040771 36.3797607,73.6480103 34,73.7246094 L34,65.7001953 C36.3737793,65.628479 38.6852417,65.3076782 40.9072266,64.7543945 L40.9072266,72.7138672 Z M49.0776367,69.1967163 C47.1512451,70.3839111 45.0828857,71.359314 42.9072265,72.1023559 L42.9072265,64.18927 C45.0706176,63.5007324 47.1341552,62.5895386 49.0776367,61.4888305 L49.0776367,69.1967163 Z M58.2880859,60.4573364 C56.3156738,63.3076172 53.8753051,65.8082885 51.0776367,67.8500976 L51.0776367,60.263855 C53.7911987,58.4594116 56.2233276,56.2645874 58.2880859,53.7548828 L58.2880859,60.4573364 Z M60.2880859,57.133728 L60.2880859,51.0466308 C61.6698608,48.9656371 62.8221435,46.7202758 63.7039795,44.3436889 C63.507019,48.9390259 62.2941284,53.2731323 60.2880859,57.133728 Z M33.1161499,63.7226563 C33.0762939,63.7178345 33.0411987,63.6992188 33,63.6992188 C32.9588013,63.6992188 32.9237061,63.7178345 32.8838501,63.7226563 C15.9886475,63.6594849 2.262207,49.897583 2.262207,32.9873047 C2.262207,16.0390625 16.0512695,2.25 33,2.25 C49.9487305,2.25 63.737793,16.0390625 63.737793,32.9873047 C63.737793,49.897583 50.0113525,63.6594849 33.1161499,63.7226563 Z" id="Shape"></path>
            <path d="M32.9995117,6.9140625 C18.6225586,6.9140625 6.9257812,18.6103516 6.9257812,32.9873047 C6.9257812,47.3642578 18.6225585,59.0615235 32.9995117,59.0615235 C47.3769531,59.0615235 59.0737305,47.3642579 59.0737305,32.9873047 C59.0737305,18.6103515 47.3769531,6.9140625 32.9995117,6.9140625 Z M32.9995117,57.0615234 C19.7250976,57.0615234 8.9257812,46.2617187 8.9257812,32.9873046 C8.9257812,19.7128905 19.7250976,8.9140624 32.9995117,8.9140624 C46.2739258,8.9140624 57.0737305,19.7128905 57.0737305,32.9873046 C57.0737305,46.2617187 46.2739258,57.0615234 32.9995117,57.0615234 Z" id="Shape"></path>
            <path d="M26.1665039,31.7119141 C29.3325195,31.7119141 31.9086914,29.1357422 31.9086914,25.9697266 L31.9086914,21.3984375 C31.9086914,18.2324219 29.3325195,15.65625 26.1665039,15.65625 C23,15.65625 20.4238281,18.2324219 20.4238281,21.3984375 L20.4238281,25.9697266 C20.4238281,29.1357422 23,31.7119141 26.1665039,31.7119141 Z M22.4238281,21.3984375 C22.4238281,19.3349609 24.1030273,17.65625 26.1665039,17.65625 C28.2299805,17.65625 29.9086914,19.3349609 29.9086914,21.3984375 L29.9086914,25.9697266 C29.9086914,28.0332032 28.2299805,29.7119141 26.1665039,29.7119141 C24.1030273,29.7119141 22.4238281,28.0332032 22.4238281,25.9697266 L22.4238281,21.3984375 Z" id="Shape"></path>
            <path d="M25.109375,23.6835938 C25.109375,23.100586 25.5834961,22.6269532 26.1665039,22.6269532 C26.7490234,22.6269532 27.2231445,23.100586 27.2231445,23.6835938 C27.2231445,24.2363282 27.6708984,24.6835938 28.2231445,24.6835938 C28.7753906,24.6835938 29.2231445,24.2363282 29.2231445,23.6835938 C29.2231445,21.9980469 27.8520507,20.6269532 26.1665039,20.6269532 C24.4809571,20.6269532 23.109375,21.998047 23.109375,23.6835938 C23.109375,24.2363282 23.5571289,24.6835938 24.109375,24.6835938 C24.6616211,24.6835938 25.109375,24.2363281 25.109375,23.6835938 Z" id="Shape"></path>
            <path d="M39.8334961,31.7119141 C43,31.7119141 45.5761719,29.1357422 45.5761719,25.9697266 L45.5761719,21.3984375 C45.5761719,18.2324219 43,15.65625 39.8334961,15.65625 C36.6674805,15.65625 34.0913086,18.2324219 34.0913086,21.3984375 L34.0913086,25.9697266 C34.0913086,29.1357422 36.6674805,31.7119141 39.8334961,31.7119141 Z M36.0913086,21.3984375 C36.0913086,19.3349609 37.7700195,17.65625 39.8334961,17.65625 C41.8969727,17.65625 43.5761719,19.3349609 43.5761719,21.3984375 L43.5761719,25.9697266 C43.5761719,28.0332032 41.8969727,29.7119141 39.8334961,29.7119141 C37.7700195,29.7119141 36.0913086,28.0332032 36.0913086,25.9697266 L36.0913086,21.3984375 Z" id="Shape"></path>
            <path d="M39.8334961,26.7402344 C41.519043,26.7402344 42.890625,25.3691406 42.890625,23.6835938 C42.890625,21.998047 41.519043,20.6269532 39.8334961,20.6269532 C38.1479492,20.6269532 36.7768555,21.998047 36.7768555,23.6835938 C36.7768555,25.3691406 38.1479492,26.7402344 39.8334961,26.7402344 Z M39.8334961,22.6269531 C40.4165039,22.6269531 40.890625,23.1005859 40.890625,23.6835937 C40.890625,24.2666015 40.4165039,24.7402343 39.8334961,24.7402343 C39.2509766,24.7402343 38.7768555,24.2666015 38.7768555,23.6835937 C38.7768555,23.1005859 39.2509766,22.6269531 39.8334961,22.6269531 Z" id="Shape"></path>
        </g>
    </g>
</svg>