<?xml version="1.0" encoding="UTF-8"?>
<svg width="66px" height="76px" viewBox="0 0 66 76" version="1.1" xmlns="http://www.w3.org/2000/svg" xmlns:xlink="http://www.w3.org/1999/xlink">
    <!-- Generator: Sketch 43.2 (39069) - http://www.bohemiancoding.com/sketch -->
    <title>noun_coin_2704660</title>
    <desc>Created with Sketch.</desc>
    <defs></defs>
    <g id="Page-1" stroke="none" stroke-width="1" fill="none" fill-rule="evenodd">
        <g id="noun_coin_2704660" fill-rule="nonzero" fill="#000000">
            <path d="M46.4140625,34.0966797 L19.5859375,34.0966797 C19.0336914,34.0966797 18.5859375,34.5439453 18.5859375,35.0966797 C18.5859375,43.0449219 25.0522461,49.5117188 33,49.5117188 C40.9477539,49.5117188 47.4140625,43.0449219 47.4140625,35.0966797 C47.4140625,34.5439453 46.9663086,34.0966797 46.4140625,34.0966797 Z M33,47.5117188 C26.4916992,47.5117188 21.1367187,42.4765625 20.6259766,36.0966797 L45.3740235,36.0966797 C44.8632813,42.4765625 39.5083008,47.5117188 33,47.5117188 Z" id="Shape"></path>
            <path d="M33,0.25 C14.9482422,0.25 0.262207,14.9355469 0.262207,32.9873047 L0.262207,43.0126953 C0.262207,54.1196289 5.8268432,63.9457397 14.3094482,69.8673096 C14.3098754,69.8677368 14.3106079,69.868042 14.3110351,69.8684693 C19.6146851,73.5703735 26.0558472,75.75 33,75.75 C44.192688,75.75 54.0874023,70.1011963 59.9938965,61.5079346 C59.9994507,61.5023804 60.0020142,61.49469 60.0073853,61.4890137 C63.6188965,56.2265625 65.737793,49.8634644 65.737793,43.0126953 L65.737793,32.9873047 C65.737793,14.9355469 51.0517578,0.25 33,0.25 Z M5.7119141,57.133728 C3.7058716,53.2731323 2.492981,48.9390259 2.2960205,44.3436889 C3.1778564,46.7202758 4.3301392,48.9656371 5.7119141,51.0466308 L5.7119141,57.133728 Z M14.0166016,67.1604614 C11.5964966,65.2538452 9.4680176,62.9950561 7.7119141,60.4573364 L7.7119141,53.7548828 C9.5434571,55.9810791 11.6672364,57.9556274 14.0166016,59.6342163 L14.0166016,67.1604614 Z M23.0878906,72.100708 C20.5687866,71.2398682 18.1948242,70.0651245 16.0166015,68.6154785 L16.0166015,60.9660644 C18.2169799,62.3067016 20.5885619,63.3917236 23.0878906,64.187622 L23.0878906,72.100708 Z M32,73.7246094 C29.6184692,73.6479492 27.3041382,73.3034668 25.0878906,72.7124634 L25.0878906,64.7532349 C27.3114014,65.307312 29.6245117,65.628418 32,65.7001953 L32,73.7246094 Z M40.9072266,72.7138672 C38.6924438,73.3040771 36.3797607,73.6480103 34,73.7246094 L34,65.7001953 C36.3737793,65.628479 38.6852417,65.3076782 40.9072266,64.7543945 L40.9072266,72.7138672 Z M49.0776367,69.1967163 C47.1512451,70.3839111 45.0828857,71.359314 42.9072265,72.1023559 L42.9072265,64.18927 C45.0706176,63.5007324 47.1341552,62.5895386 49.0776367,61.4888305 L49.0776367,69.1967163 Z M58.2880859,60.4573364 C56.3156738,63.3076172 53.8753051,65.8082885 51.0776367,67.8500976 L51.0776367,60.263855 C53.7911987,58.4594116 56.2233276,56.2645874 58.2880859,53.7548828 L58.2880859,60.4573364 Z M60.2880859,57.133728 L60.2880859,51.0466308 C61.6698608,48.9656371 62.8221435,46.7202758 63.7039795,44.3436889 C63.507019,48.9390259 62.2941284,53.2731323 60.2880859,57.133728 Z M33.1161499,63.7226563 C33.0762939,63.7178345 33.0411987,63.6992188 33,63.6992188 C32.9588013,63.6992188 32.9237061,63.7178345 32.8838501,63.7226563 C15.9886475,63.6594849 2.262207,49.897583 2.262207,32.9873047 C2.262207,16.0390625 16.0512695,2.25 33,2.25 C49.9487305,2.25 63.737793,16.0390625 63.737793,32.9873047 C63.737793,49.897583 50.0113525,63.6594849 33.1161499,63.7226563 Z" id="Shape"></path>
            <path d="M33,6.9140625 C18.6225586,6.9140625 6.9257812,18.6103516 6.9257812,32.9873047 C6.9257812,47.3642578 18.6225586,59.0615234 33,59.0615234 C47.3769531,59.0615234 59.0737305,47.3642578 59.0737305,32.9873046 C59.0737305,18.6103514 47.3769531,6.9140625 33,6.9140625 Z M33,57.0615234 C19.7255859,57.0615234 8.9257812,46.2617187 8.9257812,32.9873046 C8.9257812,19.7128905 19.7255859,8.9140625 33,8.9140625 C46.2744141,8.9140625 57.0737305,19.7128906 57.0737305,32.9873047 C57.0737305,46.2617188 46.2744141,57.0615234 33,57.0615234 Z" id="Shape"></path>
            <path d="M40.9833984,30.9316406 C44.3100586,30.9316406 47.0166015,27.734375 47.0166015,23.8046875 C47.0166015,19.8740234 44.3100585,16.6767578 40.9833984,16.6767578 C37.6567383,16.6767578 34.9506836,19.8740234 34.9506836,23.8046875 C34.9506836,27.734375 37.6567383,30.9316406 40.9833984,30.9316406 Z M40.9833984,18.6767578 C43.2075195,18.6767578 45.0166015,20.9775391 45.0166015,23.8046875 C45.0166015,26.6318359 43.2075195,28.9316406 40.9833984,28.9316406 C39.7678222,28.9316406 38.6892089,28.2299804 37.9492187,27.1450195 C38.0759887,27.1594848 38.2000122,27.1835937 38.3305664,27.1835937 C40.1938477,27.1835937 41.7099609,25.6679687 41.7099609,23.8046874 C41.7099609,21.9414061 40.1938476,20.4248046 38.3305664,20.4248046 C38.2001343,20.4248046 38.0762939,20.4488525 37.949646,20.4633178 C38.6896362,19.378418 39.7680664,18.6767578 40.9833984,18.6767578 Z M38.3305664,22.4248047 C39.0913086,22.4248047 39.7099609,23.0439453 39.7099609,23.8046875 C39.7099609,24.5654297 39.0913086,25.1835938 38.3305664,25.1835938 C37.5698242,25.1835938 36.9506836,24.5654297 36.9506836,23.8046875 C36.9506836,23.0439453 37.5698242,22.4248047 38.3305664,22.4248047 Z" id="Shape"></path>
            <path d="M25.0166016,30.9316406 C28.3432618,30.9316406 31.0493164,27.734375 31.0493164,23.8046875 C31.0493164,19.8740234 28.3432617,16.6767578 25.0166016,16.6767578 C21.6899415,16.6767578 18.9833985,19.8740234 18.9833985,23.8046875 C18.9833984,27.734375 21.6899414,30.9316406 25.0166016,30.9316406 Z M29.0493164,23.8046875 C29.0493164,24.5654297 28.4306641,25.1835938 27.6699219,25.1835938 C26.9091797,25.1835938 26.2900391,24.5654297 26.2900391,23.8046875 C26.2900391,23.0439453 26.9091797,22.4248047 27.6699219,22.4248047 C28.4306641,22.4248047 29.0493164,23.0439453 29.0493164,23.8046875 Z M25.0166016,18.6767578 C26.2319336,18.6767578 27.3103638,19.378418 28.050354,20.4632568 C27.9238892,20.4488525 27.8001709,20.4248047 27.6699219,20.4248047 C25.8061524,20.4248047 24.2900391,21.9414063 24.2900391,23.8046875 C24.2900391,25.6679687 25.8061524,27.1835938 27.6699219,27.1835938 C27.800354,27.1835938 27.9241944,27.1595459 28.0507813,27.1450806 C27.3107911,28.2300415 26.2321778,28.9316407 25.0166016,28.9316407 C22.7924805,28.9316407 20.9833985,26.631836 20.9833985,23.8046876 C20.9833985,20.9775392 22.7924805,18.6767578 25.0166016,18.6767578 Z" id="Shape"></path>
        </g>
    </g>
</svg>